<?xml version="1.0" encoding="utf-8"?>
<!-- Generator: Adobe Illustrator 20.0.0, SVG Export Plug-In . SVG Version: 6.00 Build 0)  -->
<svg version="1.1" xmlns="http://www.w3.org/2000/svg" xmlns:xlink="http://www.w3.org/1999/xlink" x="0px" y="0px"
	 viewBox="0 0 500 500" style="enable-background:new 0 0 500 500;" xml:space="preserve">
<style type="text/css">
	.st0{fill:#FFFFFF;}
	.st1{fill:none;stroke:#000000;stroke-width:7;stroke-linecap:round;stroke-linejoin:round;stroke-miterlimit:10;}
	.st2{fill:none;stroke:#000000;stroke-width:10;stroke-linecap:round;stroke-linejoin:round;stroke-miterlimit:10;}
	.st3{fill:#191919;}
	.st4{fill:none;stroke:#FFFFFF;stroke-width:7;stroke-linecap:round;stroke-linejoin:round;stroke-miterlimit:10;}
	.st5{fill:none;stroke:#FFFFFF;stroke-width:3;stroke-linecap:round;stroke-linejoin:round;stroke-miterlimit:10;}
	.st6{fill:none;stroke:#000000;stroke-width:9;stroke-linecap:round;stroke-linejoin:round;stroke-miterlimit:10;}
	.st7{fill:none;stroke:#000000;stroke-width:0.25;stroke-linecap:round;stroke-linejoin:round;stroke-miterlimit:10;}
	.st8{fill:none;stroke:#000000;stroke-width:5;stroke-linecap:round;stroke-linejoin:round;stroke-miterlimit:10;}
	.st9{opacity:0.5;fill:none;stroke:#000000;stroke-width:7;stroke-linecap:round;stroke-linejoin:round;stroke-miterlimit:10;}
	.st10{opacity:0.5;fill:none;stroke:#0D71BA;stroke-width:7;stroke-linecap:round;stroke-linejoin:round;stroke-miterlimit:10;}
	.st11{fill:none;stroke:#000000;stroke-width:8;stroke-linecap:round;stroke-linejoin:round;stroke-miterlimit:10;}
	.st12{opacity:0.5;fill:none;stroke:#000000;stroke-width:8;stroke-linecap:round;stroke-linejoin:round;stroke-miterlimit:10;}
	.st13{opacity:0.5;fill:none;stroke:#0D71BA;stroke-width:8;stroke-linecap:round;stroke-linejoin:round;stroke-miterlimit:10;}
	.st14{opacity:0.1;fill:none;stroke:#000000;stroke-width:8;stroke-linecap:round;stroke-linejoin:round;stroke-miterlimit:10;}
	.st15{opacity:0.5;fill:none;stroke:#000000;stroke-width:5;stroke-linecap:round;stroke-linejoin:round;stroke-miterlimit:10;}
	.st16{opacity:0.5;fill:none;stroke:#0D71BA;stroke-width:5;stroke-linecap:round;stroke-linejoin:round;stroke-miterlimit:10;}
	.st17{fill:none;stroke:#000000;stroke-width:2;stroke-linecap:round;stroke-linejoin:round;stroke-miterlimit:10;}
	.st18{opacity:0.5;fill:none;stroke:#000000;stroke-width:2;stroke-linecap:round;stroke-linejoin:round;stroke-miterlimit:10;}
	.st19{opacity:0.5;fill:none;stroke:#0D71BA;stroke-width:2;stroke-linecap:round;stroke-linejoin:round;stroke-miterlimit:10;}
	.st20{stroke:#000000;stroke-width:5;stroke-linecap:round;stroke-linejoin:round;stroke-miterlimit:10;}
	.st21{fill:#AEADAE;}
	.st22{opacity:0.75;}
	.st23{fill:none;stroke:#848484;stroke-width:0.25;stroke-miterlimit:10;}
	.st24{opacity:0.25;fill:#3BB54A;stroke:#3BB54A;stroke-width:0.5;stroke-miterlimit:10;}
	.st25{opacity:0.25;fill:#ED2024;stroke:#ED2024;stroke-width:0.5;stroke-miterlimit:10;}
	.st26{opacity:0.25;fill:#FBB03A;stroke:#FBB03A;stroke-width:0.5;stroke-miterlimit:10;}
</style>
<g id="brain-shape">
</g>
<g id="Layer_1">
</g>
<g id="Brain_Structure">
	<g class="st22">
		<g>
			<path d="M271.2,145.9c11.1,0,20.7,7.1,23.9,17.7c0.5,1.7,1.9,2.9,3.5,3.4c15.4,3.9,16.5,14.2,16.5,29.4v0.1c0,1.8,1,3.5,2.6,4.4
				c8,4.4,13,12.8,13,21.9c0,2.1-0.3,4.2-0.8,6.2c-0.5,1.9,0.2,3.8,1.7,5.1c5.7,4.8,9,11.8,9,19.2c0,4.5-1.2,9-3.5,12.8
				c-1,1.7-0.9,3.8,0.2,5.4c2.9,4.2,4.4,9,4.4,14.1c0,8.9-4.8,17.2-12.5,21.7c-1.6,0.9-2.6,2.7-2.5,4.5c0,0.3,0,0.7,0,1.1
				c0,13.8-11.2,25-25,25c-0.7,0-1.5,0-2.3-0.1c-0.2,0-0.3,0-0.5,0c-1.9,0-3.6,1-4.5,2.7c-4.3,8.4-12.8,13.7-22.3,13.7l-0.2,0
				c-7.2,0-12.5-6.1-12.5-14V156.8c0-2.6,1.2-5.3,3.3-7.4c2.3-2.2,5.2-3.5,8.3-3.5L271.2,145.9 M271.2,140.9c-0.1,0-0.1,0-0.2,0
				c-9.2,0.1-16.6,7.7-16.6,15.9V340c0,10.8,7.8,19,17.5,19c0.1,0,0.1,0,0.2,0c11.7,0,21.8-6.7,26.7-16.4c0.9,0.1,1.8,0.1,2.8,0.1
				c16.6,0,30-13.4,30-30c0-0.4,0-0.8,0-1.3c9-5.2,15-14.9,15-26c0-6.3-1.9-12.1-5.2-16.9c2.7-4.5,4.2-9.8,4.2-15.4
				c0-9.3-4.2-17.6-10.8-23.1c0.6-2.4,0.9-4.9,0.9-7.4c0-11.3-6.3-21.2-15.5-26.3c0-12.8,0-29.1-20.3-34.3
				C296.1,149.9,284.7,140.9,271.2,140.9L271.2,140.9z"/>
		</g>
		<path class="st8" d="M257,337.9c0-6.5,2.5-8.4,9.2-18c6.3-9.1,16.7-15.1,26-15.8c0.9-0.1,1.5-0.8,1.5-1.6l0,0
			c0-18.8,20.5-24.8,31.3-19.5"/>
		<path class="st8" d="M276.3,337.4c0,0,3.1-4.3,6-8.3c3.4-4.7,10.5-7.7,16.2-7.7c1.2,0,2.4,0,3.6,0c4.4,0,8-3.6,8-8.1
			c0-1.9,0-3.9,0-5.9c0-12.5,19-12.6,19,0v3.6"/>
		<path class="st8" d="M325.4,299.7c7.3,7.3,18.7,1.5,18.7-13.3"/>
		<path class="st8" d="M256.9,319c0,4.1,4.1,6.5,8.1,2.5"/>
		<path class="st8" d="M256.9,277.6c0,4.1,13.1-3.5,17.1-7.5"/>
		<path class="st8" d="M333.1,221.3c0,4.1-3.6,6.5-7.9,6.5"/>
		<path class="st8" d="M344.1,286.5c0-23-37.2-27.4-47.7-16.8l-4.2-5.2"/>
		<path class="st8" d="M313.8,264.3c12.6,0,29.3,8.5,29.3-11.1"/>
		<path class="st8" d="M256.8,166.6c0,21.8,22.8,18.1,22.8,2.7c0-4.8-2.5,12.8,11.2,12.8c7.7,0,7.4,8.3,7.2,12.7"/>
		<path class="st8" d="M324.9,249.2c-6.7-3.6-15.4-8.4-19.9-3.9c-18,18-15.2-15.7-29.2-1.7c-14,14,9.5,15.3-1.2,26
			c-5.1,5.1,2.8,13.2,8,18.4c0,0-10.4,1.5-13.5,7.5"/>
		<path class="st8" d="M335.8,234.5c-4.1-4.1-23.1-14.2-28.4-8.9c-5.3,5.3-12.3,2.9-17.7-2.5c-2.1-2.1-4.6-3.9-7.7-3.9h0
			c-4.4,0-7.9,3.5-7.9,7.9"/>
		<path class="st8" d="M317.6,198.2c0,0-3.8,10.5-12.5,10.5c0,0-19.4-0.1-19.4-7.2"/>
		<path class="st8" d="M269.6,199.1c0,10.6,5.8,10.2,9,18.6"/>
		<g>
			<path d="M228.8,145.9l0.2,0c3.1,0,6,1.3,8.3,3.5c2.1,2.1,3.3,4.8,3.3,7.4V340c0,7.9-5.4,14-12.5,14l-0.2,0
				c-9.4,0-18-5.2-22.3-13.7c-0.9-1.7-2.6-2.7-4.5-2.7c-0.2,0-0.3,0-0.5,0c-0.8,0.1-1.6,0.1-2.3,0.1c-13.8,0-25-11.2-25-25
				c0-0.4,0-0.7,0-1.1c0.1-1.9-0.9-3.6-2.5-4.5c-7.7-4.5-12.5-12.8-12.5-21.7c0-5.1,1.5-10,4.4-14.1c1.1-1.6,1.2-3.7,0.2-5.4
				c-2.3-3.9-3.5-8.3-3.5-12.8c0-7.5,3.3-14.5,9-19.2c1.5-1.2,2.1-3.2,1.7-5.1c-0.5-2-0.8-4.1-0.8-6.2c0-9.1,5-17.5,13-21.9
				c1.6-0.9,2.6-2.6,2.6-4.4v-0.1c0-15.2,1.1-25.4,16.5-29.4c1.7-0.4,3-1.7,3.5-3.4C208.2,153,217.8,145.9,228.8,145.9 M228.8,140.9
				c-13.5,0-24.9,8.9-28.7,21.2c-20.3,5.2-20.3,21.4-20.3,34.3c-9.3,5.1-15.5,15-15.5,26.3c0,2.6,0.3,5.1,0.9,7.4
				c-6.6,5.5-10.8,13.8-10.8,23.1c0,5.6,1.6,10.9,4.2,15.4c-3.3,4.8-5.2,10.7-5.2,16.9c0,11.1,6.1,20.8,15,26c0,0.4,0,0.8,0,1.3
				c0,16.6,13.4,30,30,30c0.9,0,1.9,0,2.8-0.1c5,9.7,15.1,16.4,26.7,16.4c0.1,0,0.1,0,0.2,0c9.7-0.1,17.5-8.2,17.5-19V156.8
				c0-8.1-7.4-15.8-16.6-15.9C228.9,140.9,228.9,140.9,228.8,140.9L228.8,140.9z"/>
		</g>
		<path class="st8" d="M243,337.9c0-6.5-2.5-8.4-9.2-18c-6.3-9.1-16.7-15.1-26-15.8c-0.9-0.1-1.5-0.8-1.5-1.6l0,0
			c0-18.8-20.5-24.8-31.3-19.5"/>
		<path class="st8" d="M223.7,337.4c0,0-3.1-4.3-6-8.3c-3.4-4.7-10.5-7.7-16.2-7.7c-1.2,0-2.4,0-3.6,0c-4.4,0-8-3.6-8-8.1
			c0-1.9,0-3.9,0-5.9c0-12.5-19-12.6-19,0v3.6"/>
		<path class="st8" d="M174.6,299.7c-7.3,7.3-18.7,1.5-18.7-13.3"/>
		<path class="st8" d="M243.1,319c0,4.1-4.1,6.5-8.1,2.5"/>
		<path class="st8" d="M243.1,277.6c0,4.1-13.1-3.5-17.1-7.5"/>
		<path class="st8" d="M166.9,221.3c0,4.1,3.6,6.5,7.9,6.5"/>
		<path class="st8" d="M155.9,286.5c0-23,37.2-27.4,47.7-16.8l4.2-5.2"/>
		<path class="st8" d="M186.2,264.3c-12.6,0-29.3,8.5-29.3-11.1"/>
		<path class="st8" d="M243.2,166.6c0,21.8-22.8,18.1-22.8,2.7c0-4.8,2.5,12.8-11.2,12.8c-7.7,0-7.4,8.3-7.2,12.7"/>
		<path class="st8" d="M175.1,249.2c6.7-3.6,15.4-8.4,19.9-3.9c18,18,15.2-15.7,29.2-1.7c14,14-9.5,15.3,1.2,26
			c5.1,5.1-2.8,13.2-8,18.4c0,0,10.4,1.5,13.5,7.5"/>
		<path class="st8" d="M164.2,234.5c4.1-4.1,23.1-14.2,28.4-8.9c5.3,5.3,12.3,2.9,17.7-2.5c2.1-2.1,4.6-3.9,7.7-3.9l0,0
			c4.4,0,7.9,3.5,7.9,7.9"/>
		<path class="st8" d="M182.4,198.2c0,0,3.8,10.5,12.5,10.5c0,0,19.4-0.1,19.4-7.2"/>
		<path class="st8" d="M230.4,199.1c0,10.6-5.8,10.2-9,18.6"/>
	</g>
	<circle class="st24" cx="221.5" cy="287.1" r="18.2"/>
	<circle class="st25" cx="278.7" cy="219.6" r="18.2"/>
	<circle class="st26" cx="295.2" cy="266.6" r="18.2"/>
	<circle class="st25" cx="219.7" cy="175.4" r="18.2"/>
</g>
<g id="Layer_4">
</g>
</svg>
