<?xml version="1.0" encoding="UTF-8" standalone="no"?>
<!-- Created with Inkscape (http://www.inkscape.org/) -->

<svg
   xmlns:dc="http://purl.org/dc/elements/1.1/"
   xmlns:cc="http://creativecommons.org/ns#"
   xmlns:rdf="http://www.w3.org/1999/02/22-rdf-syntax-ns#"
   xmlns:svg="http://www.w3.org/2000/svg"
   xmlns="http://www.w3.org/2000/svg"
   xmlns:sodipodi="http://sodipodi.sourceforge.net/DTD/sodipodi-0.dtd"
   xmlns:inkscape="http://www.inkscape.org/namespaces/inkscape"
   id="svg2"
   version="1.1"
   inkscape:version="0.91 r13725"
   xml:space="preserve"
   width="8in"
   height="8in"
   viewBox="0 0 720 720"
   sodipodi:docname="RD.svg"><metadata
     id="metadata8"><rdf:RDF><cc:Work
         rdf:about=""><dc:format>image/svg+xml</dc:format><dc:type
           rdf:resource="http://purl.org/dc/dcmitype/StillImage" /><dc:title></dc:title></cc:Work></rdf:RDF></metadata><defs
     id="defs6" /><sodipodi:namedview
     pagecolor="#ffffff"
     bordercolor="#666666"
     borderopacity="1"
     objecttolerance="10"
     gridtolerance="10"
     guidetolerance="10"
     inkscape:pageopacity="0"
     inkscape:pageshadow="2"
     inkscape:window-width="1149"
     inkscape:window-height="823"
     id="namedview4"
     showgrid="false"
     units="in"
     inkscape:zoom="0.42427288"
     inkscape:cx="239.89781"
     inkscape:cy="278.12289"
     inkscape:window-x="0"
     inkscape:window-y="0"
     inkscape:window-maximized="0"
     inkscape:current-layer="g12" /><g
     id="g10"
     inkscape:groupmode="layer"
     inkscape:label="RD"
     transform="matrix(1.25,0,0,-1.25,0,720)"><g
       id="g12"><path
         d="m 257.30811,507.20511 c -0.973,-0.047 -1.891,-0.187 -2.719,-0.434 -3.719,-1.101 -5.754,-2.675 -8.211,-6.343 -3.078,-4.598 -5.019,-6.774 -7.195,-8.067 -2.774,-1.648 -3.137,-1.586 -5.821,0.957 -3.992,3.789 -7.101,5.262 -11.144,5.282 -2.164,0.007 -2.684,-0.098 -4.07,-0.817 -2.321,-1.203 -4.864,-3.758 -5.981,-6.008 -0.519,-1.043 -1.426,-3.425 -2.019,-5.293 -0.856,-2.695 -1.364,-3.773 -2.489,-5.25 -1.82,-2.398 -2.113,-2.644 -4.566,-3.855 -1.992,-0.984 -3.566,-1.359 -12.344,-2.93 -3.812,-0.683 -6.918,-2.367 -10.004,-5.426 -2.164,-2.144 -2.726,-2.918 -4.023,-5.554 -1.731,-3.508 -2.234,-5.891 -1.981,-9.336 0.407,-5.555 3.192,-8.477 7.243,-7.61 3.507,0.754 4.886,2.079 7.281,7 2.226,4.579 3.301,6.047 5.277,7.235 2.227,1.336 4.418,1.824 9.727,2.152 4.984,0.309 7.047,0.742 9.273,1.949 2.504,1.356 4.36,4.286 6.063,9.571 1.172,3.652 2.715,6.64 3.949,7.66 2.137,1.758 4.043,2.648 6.957,3.25 1.59,0.328 3.039,0.601 3.227,0.601 0.55,0 2.199,-1.781 2.679,-2.898 0.703,-1.633 0.606,-9.367 -0.179,-14.176 -0.711,-4.367 -1.461,-6.652 -2.665,-8.109 -0.992,-1.207 -5.515,-3.625 -8.761,-4.684 -2.094,-0.683 -7.012,-3.215 -9.45,-4.867 -0.644,-0.434 -3.335,-1.875 -5.984,-3.199 -5.156,-2.582 -5.918,-3.051 -10.258,-6.324 -5.769,-4.348 -9.445,-5.911 -16.445,-6.985 -1.445,-0.222 -2.914,-0.406 -3.273,-0.406 -0.852,-0.008 -2.477,1.648 -3.336,3.402 -0.375,0.774 -1.289,2.016 -2.024,2.758 -1.156,1.168 -1.617,1.418 -3.414,1.824 -2.531,0.575 -5.367,0.606 -7.094,0.078 -0.707,-0.218 -2.336,-0.906 -3.621,-1.531 -4.363,-2.121 -11.156,-9.57 -12.613,-13.832 -1.52,-4.441 -0.648,-8.269 3.688,-16.199 0.894,-1.637 0.949,-1.895 0.835,-3.973 -0.207,-3.66 -1.628,-5.519 -5.925,-7.754 -3.203,-1.668 -4.989,-2.336 -8.075,-3.023 -3.757,-0.836 -6.597,-2.016 -8.648,-3.598 -1.449,-1.113 -1.977,-1.769 -2.863,-3.562 -0.922,-1.867 -1.106,-2.563 -1.211,-4.59 -0.164,-3.184 0.242,-5.129 1.812,-8.742 0.723,-1.66 1.809,-4.453 2.414,-6.211 1.047,-3.047 1.098,-3.371 1.106,-6.988 0.004,-3.395 -0.063,-3.918 -0.649,-4.961 -2.011,-3.598 -4.89,-6.028 -10.777,-9.079 -3.578,-1.855 -5.824,-3.695 -7.324,-5.992 -1.66,-2.554 -1.996,-3.48 -2.403,-6.64 -0.847,-6.586 1.618,-14.797 6.579,-21.918 2.761,-3.965 3.918,-6.817 3.925,-9.684 0,-0.75 -0.254,-2.902 -0.57,-4.781 -0.398,-2.352 -0.488,-3.574 -0.289,-3.942 0.156,-0.293 1.469,-1.347 2.918,-2.339 4.473,-3.063 5.824,-5.188 5.824,-9.164 0,-2.911 -0.484,-5.223 -1.527,-7.286 -0.641,-1.265 -0.934,-2.32 -1.035,-3.734 -0.196,-2.691 0.398,-4.16 2.425,-6.012 4.524,-4.136 10.817,-2.812 13.645,2.867 1.57,3.149 0.996,6.497 -2.281,13.25 -2.223,4.59 -2.465,5.547 -2.449,9.852 0.023,6.098 -0.969,9.086 -4.598,13.863 -2.352,3.102 -2.805,4.039 -3.727,7.7 -0.422,1.679 -1.617,5.57 -2.656,8.64 -2.023,6 -2.32,8.067 -1.523,10.723 0.488,1.637 3.832,5.113 6.789,7.055 7.855,5.164 10.679,9.128 12.132,17.019 0.477,2.606 0.524,3.457 0.266,5.316 -0.336,2.473 -1.266,6.379 -2.461,10.336 -0.953,3.161 -1.074,6.223 -0.308,7.832 0.601,1.27 2.304,2.86 3.972,3.711 0.672,0.34 2.352,0.793 3.735,1.004 4.828,0.735 8.152,2.473 10.328,5.399 2.59,3.488 5.488,6.468 6.902,7.093 2.609,1.153 8.711,0.329 15.481,-2.093 2.914,-1.039 5.679,-1.2 10.39,-0.602 2.621,0.336 3.238,0.32 5.629,-0.144 3.875,-0.746 9.156,-0.719 12.066,0.07 1.239,0.336 2.555,0.766 2.918,0.957 0.934,0.488 3.872,3.078 7.801,6.879 1.852,1.793 4.657,4.18 6.231,5.301 2.343,1.668 3.293,2.156 5.254,2.691 5.207,1.418 7.031,1.719 10.468,1.727 4.043,0.011 6.887,0.55 9.297,1.769 2.012,1.012 2.891,1.797 4.571,4.074 1.683,2.289 2.328,4.309 2.71,8.465 0.297,3.223 0.458,3.863 1.586,6.387 1.473,3.289 2.207,5.68 2.207,7.184 0,1.542 -1.89,5.175 -3.746,7.191 -0.855,0.934 -2.562,2.402 -3.797,3.266 -2.968,2.082 -5.429,4.359 -5.878,5.445 -0.672,1.625 -0.235,5.57 1.023,9.195 1.105,3.188 1.113,3.242 1.129,7.879 0.008,2.566 -0.047,6.18 -0.121,8.027 -0.133,3.289 -0.117,3.383 0.73,4.918 1.055,1.903 2.891,3.567 5.078,4.606 1.332,0.629 2.043,0.769 3.77,0.75 2.758,-0.027 4.113,-0.684 6.449,-3.117 2.481,-2.578 2.742,-3.313 2.778,-7.743 0.027,-3.406 -0.024,-3.746 -0.747,-5.152 -0.429,-0.828 -1.402,-2.273 -2.164,-3.207 -0.765,-0.937 -1.793,-2.558 -2.289,-3.601 -0.797,-1.688 -0.898,-2.2 -0.898,-4.528 0,-2.195 0.113,-2.867 0.711,-4.086 0.836,-1.703 3.769,-4.695 6.441,-6.566 2.555,-1.793 2.852,-2.375 2.371,-4.695 -0.207,-1 -0.824,-2.907 -1.375,-4.235 -0.758,-1.832 -1,-2.84 -1,-4.164 0,-1.879 0.969,-5.894 2.133,-8.859 0.399,-1.008 0.871,-2.719 1.055,-3.809 0.394,-2.344 0.152,-3.047 -1.832,-5.324 -2.488,-2.856 -3.899,-5.227 -4.391,-7.395 -0.258,-1.129 -0.469,-2.445 -0.469,-2.925 0,-1.133 0.704,-4.438 1.598,-7.52 0.938,-3.234 1.129,-7.086 0.774,-15.277 -0.852,-19.465 -1.208,-26.387 -1.481,-28.891 -1.285,-11.828 -1.391,-15.289 -0.594,-19.191 2.258,-11.071 2.528,-14.496 1.481,-18.696 -0.887,-3.55 -0.996,-5.152 -0.586,-8.586 0.312,-2.613 0.312,-3.714 0.008,-6.011 -0.207,-1.551 -0.489,-3.735 -0.621,-4.86 -0.137,-1.121 -0.461,-3.804 -0.727,-5.957 -0.395,-3.211 -0.457,-5.988 -0.363,-15.465 0.117,-11.722 0.148,-12.148 1.547,-21.343 0.316,-2.078 0.378,-4.125 0.242,-8.028 -0.164,-4.718 -0.121,-5.492 0.437,-7.812 0.969,-4.024 0.852,-7.156 -0.539,-14.199 -0.637,-3.239 -1.242,-7.223 -1.347,-8.856 -0.176,-2.797 0.238,-8.578 1.058,-14.746 0.16,-1.18 0.418,-5.84 0.574,-10.359 0.157,-4.516 0.422,-9.723 0.594,-11.571 0.172,-1.843 0.34,-6.964 0.371,-11.378 0.059,-8.258 0.043,-8.438 -1.258,-13.133 -1.679,-6.063 -1.382,-8.86 1.375,-12.934 0.891,-1.312 1.981,-2.781 2.422,-3.266 1.254,-1.363 1.457,-1.984 1.457,-4.429 0,-2.422 -0.554,-4.848 -2.093,-9.102 -0.743,-2.054 -0.868,-2.773 -0.778,-4.523 0.09,-1.774 0.317,-2.524 1.551,-5.102 0.883,-1.832 1.797,-3.301 2.332,-3.738 0.801,-0.652 1.082,-0.707 2.93,-0.582 1.121,0.074 2.437,0.305 2.918,0.516 2.593,1.113 5.449,4.226 6.425,6.992 0.262,0.746 0.43,2.293 0.43,3.976 0,3.676 -0.867,6.285 -3.336,10.012 -1.008,1.523 -1.98,3.059 -2.164,3.41 -0.515,0.981 -0.398,3.895 0.281,7.028 0.555,2.574 0.598,3.39 0.422,8.675 -0.105,3.211 -0.203,6.297 -0.215,6.86 -0.031,1.406 0.582,12.023 0.813,14.07 0.184,1.637 -0.203,8.887 -0.754,14.09 -0.152,1.445 -0.422,4.992 -0.594,7.879 -0.168,2.89 -0.449,6.402 -0.617,7.801 -0.43,3.585 -0.422,12.714 0.016,15.839 0.203,1.442 0.633,4.004 0.961,5.688 0.793,4.098 0.828,12.805 0.062,15.906 -0.426,1.719 -0.547,4.481 -0.777,17.363 -0.332,18.614 -0.332,22.262 0.004,41.586 0.222,12.778 0.343,15.496 0.765,17.219 0.774,3.113 0.739,12.129 -0.054,16.051 -1.129,5.574 -1.625,10.973 -1.414,15.39 0.105,2.235 0.316,5.004 0.464,6.157 0.149,1.148 0.414,4.586 0.59,7.633 0.176,3.05 0.438,6.531 0.586,7.734 0.504,4.164 0.961,13.312 0.778,15.48 -0.102,1.196 -0.348,3.883 -0.543,5.969 -0.383,4.11 -0.387,4.93 -0.079,13.754 0.196,5.676 0.18,5.977 -0.558,9.125 -1.16,4.949 -1.063,5.527 1.582,9.223 2.039,2.847 2.375,3.504 3.203,6.222 0.953,3.141 0.762,6.766 -0.5,9.391 -1.145,2.379 -1.621,2.91 -5.094,5.664 -1.551,1.231 -2.883,2.398 -2.961,2.602 -0.074,0.203 0.571,2.593 1.438,5.316 1.68,5.262 2.137,8.016 2.148,12.875 0.004,1.473 0.199,3.703 0.442,4.961 0.59,3.082 0.578,10.402 -0.02,12.941 -0.82,3.481 -3.64,7.778 -6.906,10.524 -2.129,1.789 -5.555,4.058 -8.754,5.801 -2.625,1.429 -5.996,2.16 -8.91,2.023 z m 61.89,-0.379 c -1.488,-0.035 -3.078,-0.406 -5.39,-1.172 -3.313,-1.097 -5.473,-2.336 -7.899,-4.527 -3.14,-2.836 -4.433,-4.649 -5.777,-8.09 -1.641,-4.219 -2.004,-6.891 -2.328,-17.129 -0.149,-4.676 -0.418,-9.816 -0.598,-11.418 -1.039,-9.234 0.836,-14.637 7.039,-20.32 1.407,-1.289 2.778,-2.809 3.047,-3.375 0.59,-1.238 0.676,-4.637 0.145,-5.629 -0.203,-0.379 -2.035,-2.406 -4.075,-4.512 -2.539,-2.625 -3.949,-4.336 -4.5,-5.457 -1.007,-2.058 -1.707,-6.176 -1.484,-8.715 0.09,-1.043 0.285,-4.39 0.43,-7.441 0.328,-6.996 0.781,-11.805 1.304,-13.863 0.227,-0.883 0.622,-2.918 0.876,-4.524 0.496,-3.09 0.402,-4.765 -0.606,-10.691 -1.227,-7.195 -1.578,-10.512 -1.578,-14.856 0,-2.496 -0.274,-7.668 -0.602,-11.496 -0.84,-9.722 -0.507,-12.836 2.168,-20.324 0.543,-1.512 1.075,-3.406 1.184,-4.207 0.285,-2.062 -0.281,-5.156 -1.442,-7.879 -2.23,-5.238 -2.605,-6.887 -2.609,-11.527 -0.008,-3.938 0.106,-4.813 1.594,-12.547 1.531,-7.942 1.601,-8.524 1.582,-12.84 -0.016,-4.215 -0.129,-5.098 -1.602,-12.844 -1.465,-7.699 -1.582,-8.629 -1.574,-12.547 0.004,-4.64 0.379,-6.289 2.609,-11.527 1.137,-2.676 1.731,-5.824 1.461,-7.734 -0.105,-0.723 -0.886,-3.414 -1.742,-5.981 -2.328,-7.015 -2.699,-12.094 -1.48,-20.328 0.222,-1.5 0.414,-5.223 0.433,-8.273 0.028,-5.285 0.418,-9.078 1.762,-17.071 0.828,-4.918 0.711,-7.422 -0.832,-17.949 -0.629,-4.316 -0.902,-7.508 -1.047,-12.254 -0.367,-12.136 0.641,-15.176 6.731,-20.312 3.793,-3.203 4.859,-5.117 4.207,-7.543 -0.41,-1.516 -3.16,-5.133 -6.117,-8.043 -2.954,-2.906 -3.661,-3.914 -4.583,-6.571 -0.64,-1.839 -0.734,-2.609 -0.746,-6.085 -0.004,-2.188 0.133,-4.961 0.305,-6.165 0.176,-1.203 0.383,-5.996005 0.465,-10.652005 0.156,-9.012 0.453,-11.648 1.695,-15.062 1.004,-2.75 1.949,-4.239 4.289,-6.746 2.16,-2.313 6.246,-5.313 8.871,-6.516 3.457,-1.582 8.524,-2.031 11.524,-1.02 l 0,-0.004 c 3.312,1.118 6.34,3.352 9.98,7.364 2.242,2.472 4.227,3.804 6.457,4.34 1.817,0.433 4.246,-0.106 9.086,-2.016 6.301,-2.488 10.848,-3.402 15.824,-3.18 2.696,0.117 3.559,0.274 4.907,0.891 2.168,0.992 4.379,3.105 5.371,5.133 0.703,1.433 0.808,1.976 0.797,4.269 -0.012,2.332 -0.137,2.949 -1.141,5.543 -0.617,1.606 -1.187,3.586 -1.258,4.399 -0.226,2.519 1.184,4.523 4.289,6.101 2.11,1.067 2.313,1.949 1.344,5.735005 -1.144,4.472 -3.918,8.507 -6.82,9.921 -1.106,0.54 -1.856,0.668 -3.992,0.672 -3.567,0.004 -5.352,-0.625 -7.313,-2.586 -1.977,-1.98 -2.598,-3.765 -2.387,-6.871 0.176,-2.535 0.883,-4.203005 2.825,-6.660005 2.543,-3.215 3.519,-5.015 3.519,-6.472 0,-3.77 -3.75,-7.094 -8.023,-7.114 -0.645,-0.004 -2.629,0.258 -4.418,0.582 -3.332,0.606 -6.809,1.985 -8.766,3.477 -2.012,1.535 -3.019,6.871 -2.469,13.051 0.403,4.511005 1.141,7.406005 2.684,10.500005 2.754,5.519 5.332,8.156 10.34,10.593 1.765,0.856 4.051,1.77 5.074,2.032 1.027,0.257 4.039,1.199 6.699,2.093 8.297,2.786 10.363,2.325 14.25,-3.179 0.871,-1.239 2.008,-2.602 2.52,-3.039 1.918,-1.621 6.468,-3.176 8.367,-2.86 3.394,0.563 7.387,2.52 9.773,4.781 0.969,0.918 3.336,2.922 5.262,4.45 5.387,4.265 6.863,5.816 8.277,8.691 1.243,2.524 2.668,8.281 2.668,10.758 0,0.601 0.278,2.531 0.618,4.289 0.515,2.684 0.625,4.449 0.679,11.074 0.063,7.235 0.121,8.008 0.688,9.485 0.34,0.882 0.738,2.152 0.886,2.824 0.239,1.074 0.192,1.293 -0.351,1.785 -0.344,0.309 -1.223,0.785 -1.953,1.059 -1.707,0.636 -3.883,2.656 -5.836,5.421 -2.582,3.653 -4.031,5.2 -5.856,6.27 -2.988,1.754 -4.261,2.019 -11.379,2.371 -3.433,0.172 -4.07,0.133 -4.664,-0.281 -0.461,-0.324 -1.289,-0.481 -2.531,-0.481 -1.039,0 -2.203,-0.187 -2.66,-0.422 -0.449,-0.234 -1.527,-0.507 -2.395,-0.609 -0.867,-0.105 -2.183,-0.375 -2.921,-0.609 -1.317,-0.414 -5.786,-3.227 -9.079,-5.711 -3.605,-2.723 -5.726,-4.125 -7.964,-5.274 -3.25,-1.668 -6.528,-5.004 -8.254,-8.402 -1.418,-2.785 -3.813,-6.168 -5.84,-8.238 -3.285,-3.352 -7.18,-3.77 -9.535,-1.02 -2.325,2.719 -4.274,7.383 -4.297,10.293 -0.016,1.902 1.051,5.27 2.254,7.141 1.113,1.726 3.965,4.285 6.121,5.492 1.121,0.629 2.633,1.469 3.355,1.871 5.66,3.137 9.68,5.773 11.528,7.563 1.961,1.898 2.785,2.933 7.539,9.453 2.59,3.547 5.273,6.058 7.718,7.218 2.583,1.223 2.793,1.719 2.856,6.688 0.101,8.402 2.238,13.211 7.551,17.004 0.98,0.699 2.676,2.219 3.769,3.379 1.699,1.801 1.961,2.211 1.797,2.859 -0.351,1.399 -4.351,5.629 -6.258,6.613 -1.199,0.621 -4.437,1.313 -6.148,1.317 -1.731,0.004 -4.094,-1.117 -5.074,-2.403 -1.356,-1.773 -2.266,-4.496 -2.567,-7.66 -0.332,-3.468 -1.476,-8.488 -2.312,-10.125 -0.328,-0.644 -1.121,-2.683 -1.758,-4.531 -0.637,-1.852 -1.477,-3.988 -1.863,-4.754 -1.164,-2.301 -3.989,-5.555 -10.176,-11.723 -7.891,-7.871 -11.844,-10.769 -18.52,-13.562 -5.781,-2.422 -9.593,-4.965 -10.722,-7.152 -1.293,-2.496 -1.02,-5.711 0.828,-9.762 0.726,-1.586 1.406,-3.297 1.512,-3.797 0.125,-0.574 -0.075,-2.156 -0.524,-4.234 -1.035,-4.766 -1.453,-7.95 -1.273,-9.68 0.211,-2.012 1.211,-4.605 2.363,-6.121 1.301,-1.715 4.754,-3.445 8.516,-4.277 1.597,-0.352 3.683,-0.895 4.64,-1.204 3.688,-1.199 9.047,-1.406 10.949,-0.421 1.489,0.769 4.946,4.828 6.032,7.085 1.414,2.934 3.715,6.524 6.144,9.606 2.434,3.086 8.563,8.941 11.031,10.535 1.028,0.668 3.965,3.41 7.118,6.652 5.668,5.829 6.488,6.54 7.554,6.543 1.52,0.004 4.282,-1.523 6.477,-3.578 2.851,-2.668 5.625,-4.867 7.449,-5.91 1.891,-1.078 4.434,-3.492 5.137,-4.871 0.883,-1.73 0.762,-5.269 -0.313,-9.019 -0.476,-1.668 -1.004,-3.985 -1.168,-5.153 -0.164,-1.168 -0.425,-2.676 -0.582,-3.355 -0.156,-0.68 -0.289,-2.004 -0.293,-2.942 -0.011,-2.84 -1.078,-7.383 -2.371,-10.113 -2.406,-5.074 -3.324,-6.012 -7.703,-7.895 -2.265,-0.976 -2.453,-1.007 -6.129,-1.007 -3.633,0 -3.871,0.039 -5.547,0.875 -1.593,0.797 -1.839,1.054 -2.746,2.84 l -0.996,1.964 0.656,2.254 c 1.145,3.938 1.094,3.875 9.516,11.617 3.242,2.981 3.918,4.122 3.926,6.653 0.008,2.121 -0.465,3.226 -2.078,4.844 -1.739,1.75 -3.34,2.414 -6.211,2.566 -2.149,0.113 -2.496,0.051 -3.953,-0.699 -2.453,-1.266 -3.114,-2.582 -5.102,-10.164 -1.633,-6.231 -3.309,-9.676 -6.141,-12.645 -1.804,-1.887 -2.597,-2.465 -4.781,-3.504 -2.441,-1.16 -9.34,-3.129 -12.875,-3.672 -2.004,-0.308 -8.265,-2.082 -9.375,-2.656 -1.683,-0.867 -5.234,-3.383 -6.242,-4.422 -1.344,-1.383 -2.91,-4.488 -3.645,-7.226 -0.714,-2.672 -2.773,-6.832 -4.21,-8.512 -2.329,-2.719 -3.965,-6.527 -3.958,-9.211 0.008,-3.187005 0.997,-5.660005 3.731,-9.320005 2.773,-3.719 3.035,-4.297 3.012,-6.719 -0.024,-2.508 -0.493,-3.367 -2.653,-4.875 -1.621,-1.133 -5.742,-2.922 -8.175,-3.551 -3.559,-0.918 -7.789,1.25 -9.356,4.797 -0.293,0.66 -0.672,2.055 -0.84,3.098 -0.48,2.945 -0.39,20.500005 0.125,24.367005 0.391,2.961 0.567,3.488 2.254,6.855 1.621,3.231 2.024,3.805 3.524,5 0.929,0.743 2.832,1.989 4.23,2.774 3.18,1.777 4.492,2.949 5.441,4.851 0.891,1.786 0.985,3.973 0.278,6.368 -0.363,1.222 -0.844,1.953 -2.117,3.21 -1.688,1.668 -3.371,2.52 -7.129,3.61 -2.867,0.832 -4.571,2.781 -6.188,7.078 -0.535,1.426 -1.117,3.613 -1.293,4.863 -0.738,5.324 -0.035,15.817 1.453,21.637 1.539,6.031 1.481,7.375 -0.921,20.863 -0.301,1.688 -0.551,4.114 -0.555,5.399 -0.004,1.285 -0.192,3.035 -0.422,3.89 -0.27,1.024 -0.484,4.118 -0.617,9.047 -0.192,6.992 -0.16,7.711 0.437,10.824 0.723,3.758 1.5,5.883 3.031,8.278 1.5,2.347 1.993,2.527 7.266,2.664 2.453,0.062 4.942,0.262 5.531,0.441 1.832,0.559 4.473,2.535 5.586,4.18 0.946,1.391 2.633,5.965 3.367,9.121 0.403,1.711 3.833,10.305 5.567,13.941 2.062,4.317 3.051,7.106 3.851,10.868 0.606,2.828 0.684,3.992 0.688,9.918 0.004,7.785 -0.504,11.144 -2.348,15.543 -0.586,1.402 -1.758,4.257 -2.601,6.343 -0.848,2.086 -1.93,4.649 -2.41,5.692 -1.914,4.16 -2.403,5.531 -3.129,8.754 -1.215,5.394 -3.004,8.41 -6.207,10.449 -2.246,1.43 -4.094,1.816 -8.27,1.734 l -3.668,-0.074 -1.687,1.117 c -1.481,0.981 -1.813,1.387 -2.696,3.301 -1.918,4.152 -2.281,6.562 -2.238,14.855 0.02,4.571 0.16,7.743 0.371,8.465 0.188,0.637 0.403,2.797 0.477,4.801 0.176,4.625 1.101,11.328 2.629,19 0.476,2.398 0.558,1.703 -1.141,9.746 -1.316,6.223 -1.781,11.348 -1.574,17.363 0.136,3.973 0.262,4.872 1.051,7.383 0.492,1.574 1.117,3.324 1.382,3.891 0.911,1.922 2.961,3.547 7.157,5.68 5.074,2.582 6.261,3.988 6.574,7.8 0.336,4.075 -0.863,5.774 -6.395,9.043 -3.265,1.926 -5.297,3.832 -6.422,6.024 -0.335,0.648 -1.136,2.886 -1.781,4.976 l -1.172,3.793 -0.117,9.715 c -0.156,13.379 0.352,16.758 2.985,19.992 2.062,2.528 5.277,3.367 9.292,2.422 3.157,-0.738 4.84,-1.703 7.571,-4.328 2.027,-1.949 2.543,-2.629 2.715,-3.539 0.3,-1.625 -0.375,-2.844 -2.149,-3.871 -2.652,-1.539 -5.687,-4.27 -6.621,-5.965 -0.801,-1.449 -0.875,-1.824 -0.875,-4.379 0,-2.695 0.043,-2.875 1.231,-5.254 0.675,-1.351 1.949,-3.355 2.828,-4.449 2.097,-2.605 4.597,-7.535 5.562,-10.965 1.438,-5.109 2.836,-7.121 6.731,-9.687 2.777,-1.832 5.261,-2.719 10.144,-3.614 8.567,-1.57 7.84,-1.339 15.235,-4.816 8.632,-4.059 12.023,-3.879 17.574,0.922 1.832,1.586 4.562,2.863 6.117,2.867 1.836,0 5.102,-0.742 8.848,-2.012 3.8,-1.289 6.359,-2.097 8.882,-2.804 2.528,-0.711 6.551,-2.762 7.75,-3.95 1.981,-1.964 2.192,-2.753 2.18,-8.164 -0.008,-2.648 -0.125,-6.519 -0.258,-8.609 -0.371,-5.703 0.285,-9.602 2.367,-14.07 1.372,-2.953 5.79,-6.414 9.418,-7.379 0.715,-0.192 2.622,-0.891 4.231,-1.555 4.84,-2 6.578,-4.281 6.578,-8.648 0,-2.414 -0.687,-4.653 -2.773,-9.055 -2.36,-4.981 -2.586,-5.906 -2.426,-10.066 0.121,-3.161 0.187,-3.454 1.215,-5.465 2.242,-4.395 4.957,-7.055 9.656,-9.461 2.738,-1.403 5.797,-3.688 7.578,-5.66 1.676,-1.852 2.582,-3.938 2.727,-6.266 0.121,-1.914 0.019,-2.344 -1.625,-6.902 -0.965,-2.672 -2.028,-6.219 -2.364,-7.879 -0.742,-3.66 -2.55,-7.621 -4.882,-10.672 -2.715,-3.551 -3.34,-6.313 -2.145,-9.496 1.121,-3 2.605,-4.383 5.859,-5.457 1.579,-0.524 2.266,-0.59 4.364,-0.43 3.636,0.281 5.715,-0.355 7.695,-2.352 1.875,-1.886 3.598,-4.804 3.855,-6.535 0.258,-1.715 -0.285,-3.742 -1.273,-4.777 -1.016,-1.063 -3.457,-2.258 -4.609,-2.258 -1.098,0 -2.723,0.828 -6.227,3.184 -4.336,2.918 -7.523,3.605 -10.394,2.246 -3.286,-1.559 -5.196,-4.152 -5.168,-7.024 0.023,-2.781 2.25,-5.894 5.269,-7.371 2.281,-1.117 6.25,-1.269 10.379,-0.402 3.898,0.824 4.801,0.781 8.98,-0.43 4.696,-1.359 6.422,-1.523 8.926,-0.847 1.68,0.453 2.203,0.769 3.606,2.172 2.965,2.96 3.73,5.316 3.965,12.167 0.269,8.04 -0.543,11.168 -3.758,14.461 -1.981,2.032 -3.645,2.844 -7.977,3.887 -3.609,0.867 -4.793,1.535 -6.328,3.559 -1.289,1.699 -1.695,3.09 -1.695,5.804 -0.004,2.758 0.465,3.95 3.074,7.868 1.207,1.816 2.469,3.929 2.801,4.703 0.332,0.769 1.051,2.359 1.594,3.531 1.339,2.902 2.16,7.184 2.16,11.266 0,3.742 -0.461,5.879 -1.809,8.41 -1.508,2.828 -3.391,4.273 -9.523,7.308 -4.485,2.223 -5.707,2.965 -7.008,4.266 -2.422,2.422 -3.852,6.281 -3.403,9.184 0.34,2.191 1.59,5.941 3.075,9.226 0.8,1.781 1.812,4.25 2.242,5.488 1.961,5.661 0.164,11.922 -4.289,14.946 -1.91,1.297 -5.235,2.82 -8.906,4.078 -5.055,1.734 -7.036,3.351 -9.079,7.426 l -1.328,2.652 0.137,4.234 c 0.074,2.325 0.41,5.938 0.746,8.024 0.735,4.574 0.77,6.472 0.164,9.402 -0.644,3.113 -1.429,4.621 -3.469,6.672 -1.3,1.313 -2.488,2.137 -4.535,3.145 -2.605,1.285 -4.101,1.789 -9.277,3.121 -2.602,0.672 -7.359,3.015 -8.648,4.257 -0.532,0.512 -1.247,1.707 -1.622,2.707 -0.699,1.872 -0.703,2.981 -0.023,6.59 0.406,2.16 0.359,6.797 -0.09,8.465 -1.219,4.555 -3.933,7.563 -8.574,9.492 -4.336,1.805 -6.637,1.985 -16.453,1.27 -3.114,-0.227 -4.137,0.082 -6.074,1.824 -2.036,1.828 -2.282,2.848 -1.622,6.711 0.653,3.813 0.504,6.453 -0.476,8.57 -0.836,1.809 -2.461,3.567 -4.031,4.368 -2.168,1.105 -7.661,1.539 -11.141,0.878 -0.863,-0.164 -3.672,-0.316 -6.238,-0.335 -7.137,-0.055 -9.188,0.644 -16.696,5.683 -4.308,2.895 -6.171,3.77 -9.546,4.477 -0.954,0.203 -1.809,0.297 -2.704,0.273 z m 29.219,-21.758 c 1.879,-0.035 3.598,-0.343 4.895,-0.945 2.953,-1.367 4.246,-2.441 5.195,-4.32 1.137,-2.25 1.129,-3.535 -0.035,-5.727 -1.094,-2.051 -2.199,-4.894 -2.594,-6.668 -0.586,-2.605 0.817,-5.969 3.207,-7.703 2.496,-1.809 6.059,-1.762 10.246,0.129 1.219,0.551 3.903,1.418 5.961,1.93 3.629,0.902 3.82,0.918 6.242,0.578 4.055,-0.574 5.012,-1 6.981,-3.106 4.773,-5.101 4.199,-12.617 -1.168,-15.297 -1.922,-0.961 -3.016,-1.062 -6.082,-0.562 -1.891,0.308 -3.66,0.625 -8.027,1.418 -1.766,0.324 -5.114,0.777 -7.442,1.008 -11.187,1.105 -16.141,3.195 -20.113,8.476 -1.086,1.446 -2.215,3.086 -2.508,3.649 -0.586,1.132 -2.18,7.312 -2.18,8.468 -0.004,2.161 -1.496,8.247 -2.808,11.457 -1.621,3.965 -1.61,4.043 0.758,5.207 2.781,1.368 6.347,2.067 9.472,2.008 z m -108.816,-38.25 c 0.972,0.004 1.39,-0.156 2.25,-0.66 1.359,-0.797 3.715,-3.449 4.586,-5.16 0.832,-1.629 1.465,-4.07 1.465,-5.652 0,-2.02 -0.86,-3.625 -3.02,-5.641 -2.77,-2.586 -4.32,-3.016 -11.867,-3.293 -6.231,-0.227 -7.246,-0.414 -10.223,-1.891 -3.304,-1.64 -4.156,-2.378 -10.789,-9.39 -4.543,-4.809 -8.609,-6.5 -17.945,-7.469 -0.641,-0.066 -1.696,-0.027 -2.336,0.094 -1.027,0.187 -6.387,1.953 -8.719,2.867 -2.742,1.074 -3.101,1.059 -14.187,-0.691 -2.844,-0.45 -5.25,-0.2 -6.414,0.66 -0.407,0.301 -1.067,1.32 -1.465,2.269 -0.637,1.504 -0.731,2.157 -0.731,5.082 0,3.242 0.032,3.422 1,5.328 1.778,3.508 3.594,4.801 8.922,6.34 4.375,1.266 5.961,1.16 7.426,-0.496 0.57,-0.64 1.629,-2.316 2.348,-3.719 2.355,-4.57 4.449,-6.289 7.671,-6.289 2.5,0 4.434,0.875 7.258,3.289 4.094,3.493 6.867,5.375 11.774,8 2.57,1.372 5.59,3.047 6.711,3.723 2.437,1.469 3.152,1.844 8.464,4.43 2.247,1.094 4.614,2.34 5.254,2.761 0.641,0.426 1.891,1.137 2.774,1.579 0.883,0.437 2.691,1.461 4.019,2.269 2.2,1.34 2.61,1.485 4.578,1.61 0.485,0.031 0.872,0.05 1.196,0.05 z m 107.379,-20.281 c -2.008,-0.016 -3.453,-0.422 -10.657,-2.996 -0.882,-0.316 -2.332,-0.785 -3.218,-1.039 -2.235,-0.641 -4.778,-2.754 -6.016,-4.996 -1.894,-3.43 -2.172,-6.422 -1.211,-13.164 0.496,-3.496 -0.019,-7.192 -1.5,-10.688 -1.621,-3.844 -1.726,-4.82 -0.726,-6.863 1,-2.047 2.668,-3.742 4.941,-5.023 0.961,-0.54 2.34,-1.399 3.059,-1.907 0.722,-0.511 2.472,-1.543 3.886,-2.301 2.395,-1.277 5.938,-3.687 9.395,-6.382 3.047,-2.379 7.879,-5.172 10.781,-6.231 7.57,-2.765 9.215,-4.351 9.789,-9.433 0.442,-3.899 1.977,-11 2.813,-13.008 0.402,-0.965 1.187,-3.504 1.742,-5.649 1.215,-4.664 2.23,-6.789 4.047,-8.464 2.25,-2.075 2.867,-2.243 7.89,-2.118 2.407,0.059 5.125,0.125 6.039,0.145 1.524,0.031 1.75,-0.051 2.723,-0.988 1.336,-1.282 1.731,-2.047 2.172,-4.176 0.57,-2.762 -0.434,-9.434 -2.027,-13.477 -0.739,-1.879 -1.754,-7.945 -2.043,-12.183 -0.168,-2.45 -0.454,-8.719 -0.637,-13.938 -0.188,-5.215 -0.391,-10.898 -0.457,-12.629 -0.188,-5.015 0.625,-7.625 4.597,-14.808 2.684,-4.86 3.211,-6.45 3.227,-9.762 0.008,-2.137 -0.133,-3.008 -0.738,-4.609 -0.918,-2.43 -0.981,-4.848 -0.184,-7.008 1.156,-3.121 2.918,-7.707 3.617,-9.403 0.715,-1.73 1.356,-4.543 1.914,-8.406 0.54,-3.707 2.164,-5.453 7.954,-8.551 1.664,-0.894 3.683,-2.125 4.484,-2.738 0.801,-0.613 2.246,-1.578 3.211,-2.141 2.387,-1.394 7.492,-6.089 8.91,-8.191 1.32,-1.957 2.324,-4.887 2.324,-6.781 0,-1.649 -0.976,-4.555 -2.078,-6.184 -2.043,-3.027 -2.883,-5.547 -2.199,-6.59 0.605,-0.925 6.57,-2.355 8.91,-2.136 4.121,0.386 7.434,2.8 8.469,6.175 1.265,4.11 0.875,8.786 -1.086,13.047 -0.492,1.071 -1.113,2.711 -1.383,3.649 -0.848,2.941 -2.961,7.082 -4.695,9.203 -2.539,3.105 -4.93,4.898 -10.016,7.519 -4.273,2.204 -5.324,2.918 -9.234,6.286 -2.504,2.152 -4.746,7.168 -6.114,13.66 -0.609,2.894 -0.523,4.57 0.457,9.058 1.575,7.2 1.122,10.504 -2.328,17.039 -2.121,4.012 -2.855,5.922 -3.55,9.274 -0.536,2.57 -0.582,3.519 -0.418,8.023 0.101,2.809 0.308,6.028 0.457,7.149 0.152,1.125 0.281,5.086 0.285,8.804 0.012,7.5 0.269,9.496 1.75,13.524 3.445,9.355 3.765,10.832 3.121,14.297 -0.324,1.742 -0.895,3.355 -1.91,5.398 -2.758,5.547 -3.403,7.969 -2.653,9.942 0.379,0.996 3.883,4.375 5.309,5.113 0.707,0.367 1.672,0.558 2.801,0.558 2.176,0 3.008,-0.601 7.59,-5.504 2.55,-2.73 3.566,-4.058 4.437,-5.824 1.527,-3.082 1.777,-4.355 1.453,-7.363 -0.332,-3.039 -0.679,-4.273 -1.89,-6.695 -1.422,-2.852 -4.149,-10.133 -4.653,-12.426 -1.218,-5.57 -1.769,-10.879 -1.754,-16.902 0.016,-4.809 0.618,-16.622 1.024,-19.993 0.613,-5.125 2.679,-9.457 6.402,-13.422 2.586,-2.757 3.551,-4.636 3.574,-6.96 0.016,-1.872 -0.281,-2.461 -2.511,-5.008 -2.688,-3.067 -3.856,-7.614 -2.59,-10.094 0.902,-1.766 3.469,-4.016 5.406,-4.742 0.926,-0.348 1.813,-0.629 1.969,-0.629 0.156,0 1.172,-0.399 2.25,-0.887 1.703,-0.765 2.547,-1.476 6.344,-5.344 2.406,-2.449 5.375,-5.187 6.593,-6.086 2.098,-1.539 3.868,-3.39 4.602,-4.808 0.609,-1.18 1.207,-4.41 1.508,-8.172 0.406,-5.078 0.789,-6.398 3.472,-11.863 2.7,-5.508 3.231,-7.137 3.231,-9.965 0,-2.399 -0.528,-3.449 -3.192,-6.356 -1.382,-1.507 -2.168,-1.992 -7.711,-4.781 -6.011,-3.019 -6.238,-3.168 -8.675,-5.617 -2.676,-2.68 -3.641,-4.305 -4.473,-7.516 -0.652,-2.515 -0.582,-4.789 0.297,-9.547 0.926,-5.019 0.828,-7.355 -0.402,-9.617 -0.864,-1.59 -3.649,-4.16 -6.403,-5.914 -0.929,-0.59 -2.543,-2 -3.586,-3.136 -4.812,-5.235 -6.832,-7.047 -9.297,-8.36 -2.656,-1.41 -4.863,-3.394 -6.746,-6.051 -5.386,-7.605 -5.633,-7.812 -9.949,-8.281 -8.23,-0.894 -11.426,-1.605005 -13.715,-3.051005 -1.902,-1.199 -1.89,-2.3 0.055,-5.672 2.027,-3.519 5.75,-6.144 9.488,-6.691 3.235,-0.473 4.426,-0.363 7.59,0.695 4.527,1.516 8.648,4.539 13.465,9.875 2.512,2.786 4.172,5.313005 6.75,10.266005 1.695,3.266 2.055,3.762 3.551,4.895 1.156,0.878 5.836,2.996 8.785,3.98 2.273,0.754 7.23,3.617 9.84,5.68 2.004,1.582 4.453,4.949 4.98,6.851 0.52,1.864 0.367,6.77 -0.273,8.844 -0.844,2.73 -1.469,5.934 -1.465,7.488 0.008,2.102 0.801,5 1.793,6.547 1.531,2.391 3.121,3.488 9.797,6.785 5.968,2.942 6.465,3.25 8.621,5.352 2.625,2.555 4.039,5.051 4.734,8.367 0.543,2.582 0.543,3.727 -0.004,7.082 -0.316,1.949 -0.793,3.457 -1.711,5.399 -4.558,9.66 -5.488,11.789 -6.422,14.71 -1.343,4.196 -1.554,5.95 -0.953,8.012 0.465,1.606 1.18,2.477 2.524,3.094 1.14,0.519 1.691,0.633 5.265,1.078 3.942,0.496 5.391,0.965 7.293,2.363 4.856,3.563 5.961,11.727 2.875,21.196 -0.714,2.191 -1.671,4.402 -2.445,5.644 -2.941,4.738 -9.523,9.664 -15.352,11.492 -2.855,0.895 -7.421,1.567 -9.136,1.344 -1.856,-0.242 -5.817,-1.332 -8.442,-2.32 -2.968,-1.121 -5.074,-1.266 -6.722,-0.469 -1.715,0.832 -2.891,2.195 -3.653,4.234 -0.339,0.899 -0.929,2.262 -1.316,3.024 -0.676,1.332 -1.766,4.973 -3.074,10.273 -0.746,3.024 -0.781,5.981 -0.164,14.446 0.91,12.504 1.789,18.445 3.347,22.617 0.45,1.203 0.91,2.648 1.028,3.211 0.113,0.558 0.597,1.918 1.074,3.011 0.476,1.098 1.336,3.528 1.914,5.399 0.984,3.195 1.051,3.648 1.051,7.348 0,3.519 -0.086,4.203 -0.813,6.418 -0.445,1.363 -1.078,3.007 -1.406,3.648 -0.832,1.644 -3.5,5.137 -4.879,6.383 -1.551,1.402 -5.281,3.242 -8.082,3.988 -5.023,1.34 -7.949,4.145 -7.969,7.629 -0.004,1.621 1.34,5.602 2.422,7.164 0.422,0.605 1.758,2.219 2.977,3.582 2.703,3.031 3.879,5.285 4.113,7.879 0.297,3.293 -1.355,6.57 -4.301,8.523 -2.136,1.418 -3.215,1.672 -8.199,1.934 -3.992,0.211 -4.352,0.277 -5.074,0.941 -1.531,1.407 -1.879,2.75 -1.895,7.336 -0.008,2.297 0.125,4.883 0.301,5.746 0.774,3.883 0.039,11.614 -1.5,15.762 -1.43,3.848 -4.051,6.676 -7.523,8.121 -2.918,1.207 -6.008,1.617 -11.27,1.489 -4.262,-0.106 -4.383,-0.129 -6.226,-1.083 -1.34,-0.695 -2.993,-2.05 -5.719,-4.695 -4.547,-4.406 -6.016,-5.262 -9.031,-5.262 -3.016,0 -4.68,1.231 -5.547,4.086 -1.321,4.368 -2.684,7.27 -4.485,9.547 -1.715,2.168 -4.39,3.446 -7.183,3.426 z m -3.75,-15.156 c 0.492,0.148 6.39,-1.531 7.648,-2.18 1.508,-0.777 3.473,-2.543 4.031,-3.617 0.793,-1.539 1.25,-3.727 1.258,-6.027 0.004,-2.778 0.469,-5.633 1.16,-7.2 0.692,-1.562 2.801,-3.863 4.012,-4.371 2.227,-0.937 6.602,-0.109 8.965,1.692 0.703,0.539 1.812,1.765 2.469,2.73 1.152,1.695 1.621,2.879 2.945,7.41 0.527,1.817 0.883,2.43 2.223,3.836 2.929,3.071 6.468,4.356 9.316,3.387 2.223,-0.758 3.297,-1.777 4.465,-4.238 1.012,-2.129 1.055,-2.34 1.027,-5.285 -0.043,-4.653 -1.121,-8.317 -3.168,-10.747 -0.418,-0.496 -1.722,-1.492 -2.902,-2.207 -5.012,-3.043 -8.731,-6.285 -12.191,-10.621 -0.801,-1.008 -1.684,-1.953 -1.961,-2.101 -0.805,-0.43 -3.274,-0.578 -4.563,-0.274 -0.836,0.196 -2.098,1.039 -4.23,2.828 -5.059,4.243 -8.563,6.543 -14.442,9.5 -5.519,2.774 -5.586,2.821 -8.172,5.508 -1.832,1.903 -2.91,3.321 -3.621,4.754 -0.918,1.852 -1.023,2.32 -1.121,5.027 -0.09,2.485 0,3.313 0.539,4.961 1.231,3.77 3.293,6.547 5.176,6.957 0.437,0.098 0.949,0.223 1.137,0.278 z m -93.516,-6.578 c -2.25,-0.008 -3.84,-0.785 -5.879,-2.868 -1.34,-1.367 -1.914,-2.277 -2.894,-4.593 -1.286,-3.047 -2.668,-5.059 -4.219,-6.149 -1.121,-0.785 -5.57,-1.715 -9.543,-1.988 -3.668,-0.258 -8.742,-1.414 -10.586,-2.414 -3.676,-1.996 -6.461,-5.965 -8.531,-12.172 -0.586,-1.758 -1.403,-3.859 -1.809,-4.668 -1.805,-3.578 -6.801,-8.594 -10.789,-10.832 -6.453,-3.625 -9.711,-7.457 -14.367,-16.898 -1.652,-3.356 -3.695,-7.106 -4.539,-8.336 -0.84,-1.227 -1.965,-3.336 -2.5,-4.688 -0.891,-2.238 -0.977,-2.734 -0.992,-5.66 -0.02,-2.867 0.07,-3.449 0.82,-5.398 0.465,-1.207 1.535,-3.504 2.379,-5.11 1.031,-1.957 1.902,-4.215 2.652,-6.859 l 1.117,-3.938 -0.023,-5.398 c -0.016,-2.969 -0.125,-7.734 -0.246,-10.586 -0.18,-4.219 -0.121,-6.051 0.312,-9.777 0.723,-6.235 0.743,-14.137 0.039,-16.672 -0.511,-1.856 -4.128,-9.324 -5.761,-11.899 -0.981,-1.55 -2.168,-4.547 -2.629,-6.652 -0.422,-1.934 0.082,-4.961 1.23,-7.398 0.703,-1.493 1.953,-2.977 6.504,-7.735 3.098,-3.238 5.965,-6.289 6.371,-6.777 0.41,-0.492 2.489,-2.395 4.625,-4.231 8.25,-7.089 10.969,-10.113 13.328,-14.828 0.981,-1.957 1.645,-3.804 2.078,-5.765 2.024,-9.207 3.911,-12.403 8.774,-14.852 3.16,-1.59 5.09,-1.918 12.711,-2.152 6.641,-0.203 6.754,-0.219 8.461,-1.051 2.019,-0.988 3.957,-2.91 5.347,-5.305 3.454,-5.941 5.137,-7.226 9.145,-7 1.594,0.09 2.273,0.297 3.609,1.098 3.344,2.008 5.02,5 4.711,8.394 -0.273,3.055 -1.488,4.836 -5.558,8.164 -2.367,1.934 -3.469,3.18 -3.969,4.497 -0.262,0.691 -0.145,1.105 0.883,3.062 0.656,1.242 1.836,3.332 2.625,4.641 2.121,3.523 2.383,4.41 2.398,8.125 0.012,3.273 0.004,3.304 -1.894,9.777 -0.309,1.043 -0.739,3.078 -0.961,4.523 -0.219,1.446 -0.539,3.215 -0.711,3.938 -0.172,0.723 -0.313,2.234 -0.317,3.359 -0.004,1.121 -0.203,3.223 -0.441,4.668 -0.566,3.438 -0.563,6.586 0.008,7.961 0.273,0.653 1.781,2.383 3.785,4.332 1.914,1.867 3.648,3.844 4.074,4.641 0.774,1.461 0.961,3.305 0.465,4.609 -0.445,1.172 -1.98,2.723 -3.605,3.641 -2.411,1.363 -5.559,4.461 -6.356,6.25 -0.57,1.281 -0.687,2.035 -0.691,4.461 -0.004,2.859 0.039,3.039 2.015,8.754 l 2.024,5.84 0.113,4.519 c 0.129,5.129 -0.168,6.926 -1.797,10.887 -2.496,6.058 -3.031,9.855 -1.906,13.523 0.738,2.41 2.281,4.067 6.176,6.633 2.832,1.863 4.449,3.567 4.711,4.945 0.468,2.508 -1.766,5.852 -6.145,9.2 -1.672,1.277 -3.078,3.554 -3.242,5.254 -0.07,0.753 0.09,2.546 0.363,3.992 0.27,1.441 0.606,4 0.742,5.683 0.774,9.36 0.895,10.278 1.625,12.203 1.028,2.715 1.922,7.11 1.946,9.54 0.035,3.46 -1.391,7.097 -4.258,10.863 -1.887,2.476 -2.371,3.73 -2.11,5.469 0.215,1.425 1.047,2.406 4.184,4.933 4.524,3.645 5.746,5.61 5.738,9.231 -0.004,1.695 -0.156,2.5 -0.687,3.586 -1.574,3.218 -4.922,5.468 -8.133,5.453 z m -63.102,-13.61 c -0.296,0.024 -0.601,-0.023 -0.941,-0.117 -2.137,-0.59 -3.133,-1.621 -7.437,-7.703 -2.153,-3.043 -4.911,-4.113 -11.512,-4.484 -4.078,-0.227 -4.75,-0.336 -6.176,-1.036 -1.863,-0.914 -3.508,-2.617 -4.371,-4.527 -0.934,-2.066 -1.031,-6.445 -0.211,-9.664 1.024,-4.031 1.078,-7.125 0.188,-11.09 -1.27,-5.664 -2.52,-7.734 -10.391,-17.195 -4.461,-5.359 -6.137,-8.531 -6.578,-12.457 -0.371,-3.305 0.941,-6.965 3.648,-10.18 2.754,-3.273 6.453,-8.305 6.91,-9.394 0.973,-2.332 2.114,-7.067 2.266,-9.43 0.09,-1.363 0.18,-4.188 0.199,-6.273 0.024,-2.086 0.254,-6.094 0.516,-8.903 0.781,-8.441 0.445,-12.664 -1.332,-16.633 -0.395,-0.882 -1.11,-2.652 -1.586,-3.929 -2.141,-5.754 -4.192,-7.739 -8,-7.743 -1.531,-0.003 -5.566,1.02 -7.629,1.934 -3.672,1.621 -7.801,1.945 -12.5,0.981 -4.363,-0.899 -7.883,-2.692 -14.52,-7.399 -4.628,-3.285 -6.511,-5.66 -8.191005,-10.336 l -0.91,-2.547 -0.004,-6.418 c -0.004,-6 0.039,-6.554 0.688,-8.422 1.468005,-4.257 4.445005,-7.261 8.210005,-8.281 1.43,-0.387 2.649,-0.484 4.961,-0.394 6.063,0.23 7.356,0.152 10.504,-0.637 1.684,-0.422 3.75,-0.856 4.586,-0.965 1.844,-0.238 6.664,0.559 8.465,1.399 3.207,1.496 5.602,4.945 5.852,8.421 0.277,3.852 -0.536,5.329 -3.719,6.774 -3.805,1.723 -6.547,1.285 -12.211,-1.949 -2.981,-1.703 -5.109,-2.504 -6.672,-2.512 -1.129,-0.004 -4.57,1.746 -5.828,2.961 -1.145,1.105 -2.145,3.656 -2.145,5.461 0,1.726 1.848,5.012 4.09,7.265 3.746,3.766 10.446,5.332 18.961,4.438 3.57,-0.375 5.723,-1.356 8.067,-3.676 1.445,-1.426 2.082,-2.422 3.8,-5.945 1.141,-2.328 2.789,-5.199 3.672,-6.387 1.828,-2.457 3.817,-6.277 4.328,-8.316 0.536,-2.121 0.223,-7.871 -0.519,-9.52 -0.735,-1.64 -2.168,-3.066 -4.367,-4.344 -0.934,-0.546 -2.95,-1.808 -4.473,-2.808 -1.523,-1 -3.164,-2.016 -3.648,-2.262 -0.481,-0.246 -1.84,-1.238 -3.02,-2.199 -2.293,-1.871 -4.332,-2.848 -5.383,-2.574 -0.355,0.093 -1.867,1.363 -3.367,2.828 -3.094,3.015 -4.434,3.765 -6.762,3.754 -5.129,-0.02 -9.32,-4.524 -12.058,-12.965 -1.727,-5.324 -2.418,-10.402 -1.957,-14.391 0.226,-1.98 0.507,-2.855 1.523,-4.758 2.051,-3.855 3.289,-4.855 10.406,-8.398 2.621,-1.309 5.336,-2.766 6.028,-3.242 2.867,-1.973 5.148,-5.781 5.347,-8.93 0.114,-1.754 -0.3,-4.719 -1.312,-9.414 -0.692,-3.219 -0.434,-7.59 0.562,-9.543 2.27,-4.449 5.516,-6.871 12.473,-9.316 1.688,-0.594 5.043,-2.051 7.465,-3.239 7.117,-3.5 8.5,-5.043 13.242,-14.800005 1.578,-3.243 3.453,-6.688 4.168,-7.661 2.246,-3.046 4.578,-4.535 8.289,-5.296 1.981,-0.407 2.652,-0.418 4.922,-0.102 3.871,0.543 6.301,1.238 10.191,2.91 2.727,1.172 4.067,1.57 6.157,1.832 2.484,0.313 2.746,0.297 3.664,-0.238 0.543,-0.32 1.359,-1.106 1.812,-1.75 l 0.824,-1.172 -0.343,-4.488 c -0.43,-5.594 -0.278,-7.375 0.793,-9.5 1.879,-3.727 6.046,-5.965 11.086,-5.965 4.429,0 7.363,1.059 14.921,5.391 3.942,2.261 5.059,2.613 6.93,2.195 2.891,-0.649 5.492,-2.633 7.938,-6.055 0.714,-1.004 1.976,-2.422 2.804,-3.152 2.543,-2.238 7.645,-4.438 10.41,-4.488 0.563,-0.012 2.176,0.171 3.59,0.398 4.477,0.727 9.246,3.574 14.008,8.359 2.801,2.817 3.289,3.465 4.418,5.875 0.742,1.578 1.422,3.578 1.633,4.786 0.375,2.164 0.266,6.46 -0.274,10.765 -0.16,1.285 -0.425,4.262 -0.585,6.621 -0.348,5.074005 -1.036,7.473005 -3.293,11.473005 -1.723,3.043 -2.313,3.648 -3.582,3.648 -1.071,0 -5.258,-1.363 -7.149,-2.328 -1.695,-0.863 -4.125,-3.371 -5.004,-5.16 -0.57,-1.16 -0.695,-1.859 -0.691,-3.894 0.012,-3.192005 0.676,-4.524005 4.078,-8.168005 3.328,-3.563 3.68,-4.305 3.676,-7.668 -0.004,-2.372 -0.102,-2.864 -0.887,-4.457 -1.715,-3.485 -3.637,-5.043 -7,-5.676 -1.676,-0.313 -5.082,0.34 -7.234,1.386 -1.961,0.954 -4.274,3.286 -5.274,5.321 -0.781,1.586 -0.793,1.703 -0.973,9.34 -0.152,6.496 -0.281,8.105005 -0.792,10.066005 -0.352,1.344 -0.614,3.277 -0.622,4.555 -0.011,3.269 0.649,4.359 3.805,6.289 7.785,4.762 10.949,8.207 11.524,12.547 0.179,1.379 0.085,1.746 -1.172,4.484 -1.746,3.813 -2.379,6.352 -2.586,10.379 -0.305,5.844 -2.281,9.305 -6.871,12.016 -1.848,1.089 -6.086,2.117 -8.754,2.117 -1.375,0 -3.809,0.336 -6.317,0.871 -3.465,0.738 -4.613,1.133 -7.586,2.617 -2.023,1.012 -4.425,2.5 -5.691,3.523 -3.801,3.079 -5.387,4.004 -7.793,4.54 -2.191,0.484 -2.234,0.484 -6.617,-0.332 -2.426,-0.454 -4.969,-0.875 -5.649,-0.942 -1.66,-0.164 -5.019,0.875 -6.003,1.856 -1.211,1.214 -1.954,3.644 -2.258,7.402 -0.383,4.668 -1.364,9.359 -2.543,12.125 -0.547,1.285 -1.449,3.586 -2,5.109 -2.211,6.094 -4.821,10.258 -7.946,12.66 -0.949,0.731 -3.414,2.207 -5.48,3.282 -3.523,1.836 -6.543,3.972 -7.699,5.449 -0.992,1.262 -3.149,5.937 -3.93,8.519 -1.227,4.051 -3.668,8.543 -6.66,12.25 -1.43,1.77 -2.996,4.004 -3.484,4.965 -1.09,2.149 -1.403,4.844 -0.719,6.168 0.539,1.043 2.336,2.696 4.875,4.489 2.945,2.078 4.711,4.015 5.992,6.582 l 1.156,2.316 -0.062,20.918 c -0.043,13.348 -0.18,21.633 -0.383,22.902 -0.59,3.68 -2.219,6.301 -7.117,11.43 -3.289,3.441 -4.078,4.887 -4.09,7.473 -0.008,2.285 0.812,4.511 2.441,6.609 9.207,11.852 10.492,13.957 11.449,18.766 0.446,2.242 0.606,4.363 0.665,8.793 0.062,4.836 0.167,6.058 0.605,7.148 1.824,4.52 4.316,5.766 12.25,6.129 5.84,0.266 7.426,0.684 9.445,2.496 1.547,1.395 2.496,3.098 2.981,5.356 0.273,1.285 0.246,1.91 -0.16,3.636 -0.696,2.934 -2.481,6.453 -4.282,8.449 -1.461,1.622 -2.281,2.274 -3.172,2.34 z m 48.489,-13.312 c 1.922,-0.043 3.363,-0.871 4.164,-2.41 0.574,-1.102 0.601,-1.625 0.605,-11.078 0.004,-9.672 -0.011,-9.954 -0.64,-11.125 -1.02,-1.907 -2.039,-2.946 -3.7,-3.754 -1.523,-0.746 -1.609,-0.754 -6.187,-0.575 -4.133,0.164 -4.828,0.121 -6.309,-0.382 -3.863,-1.313 -7.351,-4.473 -9.418,-8.532 -0.531,-1.043 -1.605,-2.715 -2.382,-3.711 -1.95,-2.488 -5.02,-7.918 -5.715,-10.097 -0.364,-1.141 -0.629,-2.985 -0.719,-5.016 -0.121,-2.769 -0.02,-3.812 0.734,-7.586 0.485,-2.41 0.954,-4.969 1.039,-5.691 0.09,-0.723 0.364,-2.824 0.606,-4.668 1.519,-11.539 1.535,-36.571 0.019,-42.754 -0.234,-0.965 -0.429,-2.164 -0.437,-2.668 -0.004,-0.504 -0.348,-2.211 -0.766,-3.793 -1,-3.813 -1.226,-7.953 -0.597,-10.984 0.679,-3.286 2.078,-6.055 5.136,-10.161 1.481,-1.992 2.93,-4.082 3.219,-4.648 0.793,-1.539 4.344,-5.508 5.863,-6.551 2.442,-1.676 4.848,-2.219 9.637,-2.168 2.813,0.028 4.637,-0.086 5.516,-0.351 1.879,-0.567 3.484,-2.328 4.347,-4.766 0.653,-1.855 0.68,-2.187 0.465,-5.809 -0.297,-4.941 -0.304,-7.933 -0.023,-12.449 0.191,-3.074 0.156,-3.82 -0.246,-4.75 -0.918,-2.136 -2.45,-2.539 -7.317,-1.922 -7.668,0.973 -11.601,4.426 -12.406,10.903 -0.652,5.242 -2.09,8.164 -5.805,11.793 -1.379,1.347 -3.621,3.168 -4.98,4.047 -2.609,1.679 -5.996,4.933 -9.586,9.199 -1.172,1.394 -3.34,3.59 -4.813,4.879 -4.539,3.972 -5.316,4.757 -6.203,6.269 -0.797,1.356 -0.855,1.653 -0.816,4.231 0.051,3.468 0.742,5.75 2.582,8.492 2.113,3.144 3.648,7.562 4.074,11.715 0.383,3.765 0.387,3.582 -0.121,10.433 -0.23,3.098 -0.328,9.563 -0.269,18.094 0.093,14.523 -0.086,17.148 -1.395,20.25 -0.414,0.981 -1.246,3.227 -1.844,4.992 -0.601,1.766 -1.316,3.801 -1.593,4.524 -0.407,1.054 -0.485,2.035 -0.403,4.961 0.094,3.535 0.133,3.726 1.223,6.027 0.617,1.305 2.426,4.262 4.015,6.566 1.594,2.301 3.602,5.239 4.465,6.524 2.742,4.082 7.731,8.461 12.5,10.976 4.739,2.5 7.2,5.661 9.528,12.243 1.062,2.992 3.144,6.57 4.402,7.554 2.52,1.973 6.242,3.395 9.699,3.699 0.293,0.024 0.578,0.036 0.852,0.028 z m 165.574,-1.961 c 1.957,0 2.891,-0.442 4.352,-2.059 1.418,-1.57 1.804,-2.535 2.234,-5.593 l 0.348,-2.508 -0.907,-1.938 c -0.496,-1.062 -1.359,-2.488 -1.91,-3.164 -1.359,-1.656 -4.14,-6.402 -4.82,-8.219 -0.305,-0.808 -0.832,-2.785 -1.176,-4.39 -1.383,-6.477 -2.754,-9.356 -4.984,-10.492 -0.938,-0.477 -3.594,-0.719 -5.149,-0.469 -1.347,0.219 -2.504,1.008 -4.879,3.347 -2.156,2.125 -2.609,3.129 -3.539,7.86 -0.992,5.058 -0.968,9.773 0.055,11.719 0.863,1.629 2.469,3.211 5.34,5.254 1.351,0.96 3.383,2.605 4.512,3.652 1.132,1.047 2.843,2.558 3.808,3.355 0.961,0.797 2.012,1.696 2.332,1.989 1.16,1.066 2.715,1.656 4.383,1.656 z m -73.633,-9.309 c -1.984,0.004 -2.703,-0.129 -4.078,-0.758 -4.613,-2.105 -6.238,-6.109 -4.102,-10.117 1.52,-2.855 3.727,-4.336 10.602,-7.129 3.316,-1.343 3.641,-1.55 6.078,-3.898 1.418,-1.363 3.18,-3.274 3.914,-4.238 1.547,-2.043 4.528,-8.102 5.028,-10.223 0.191,-0.801 0.785,-2.465 1.324,-3.691 0.539,-1.227 1.137,-2.805 1.32,-3.504 0.445,-1.66 2.02,-4.785 3.555,-7.047 0.672,-0.996 3.027,-3.684 5.234,-5.973 5.211,-5.418 5.656,-6.262 5.633,-10.719 -0.016,-2.918 -0.117,-3.504 -1.109,-6.421 -2.332,-6.844 -2.442,-8.688 -0.887,-14.649 1.945,-7.441 1.656,-11.16 -1.192,-15.449 -0.867,-1.309 -2.343,-3.215 -3.285,-4.235 -4.336,-4.699 -7.929,-10.769 -9.57,-16.164 -0.437,-1.437 -1.816,-4.652 -3.062,-7.14 -2.071,-4.133 -3.282,-6.059 -6.274,-9.988 -1.355,-1.782 -4.984,-4.747 -6.773,-5.536 -2.946,-1.297 -6.703,-3.652 -8.504,-5.336 -3.012,-2.812 -3.625,-4.996 -2.207,-7.839 1.351,-2.704 3.097,-4.024 6.64,-5.012 2.012,-0.559 4.02,-0.32 6.215,0.742 2.004,0.973 5.469,4.363 7.184,7.031 0.554,0.864 3.367,3.938 6.25,6.825 4.32,4.328 5.426,5.613 6.293,7.296 1.199,2.332 2.883,6.606 3.445,8.754 0.207,0.801 0.695,2.18 1.082,3.063 0.383,0.883 1.039,2.461 1.453,3.504 0.418,1.043 1.106,2.422 1.535,3.066 0.426,0.641 1.153,1.824 1.61,2.625 0.476,0.832 3.437,4.106 6.875,7.598 5.461,5.558 6.144,6.359 7.164,8.465 1.101,2.269 1.129,2.398 1.125,5.531 -0.004,2.582 -0.164,3.812 -0.82,6.273 -2.415,9.071 -2.086,17.317 0.996,25.098 0.476,1.203 1,2.977 1.16,3.941 0.328,1.973 0.101,5.286 -0.477,6.934 -0.926,2.652 -4.07,6.094 -7.281,7.973 -2.188,1.277 -4.719,3.668 -7.434,7.015 -3.539,4.364 -4.531,6.602 -6.449,14.52 -0.894,3.687 -2.512,8.246 -3.391,9.551 -1.429,2.128 -6.113,6.539 -8.624,8.128 -1.114,0.704 -3.383,2.747 -5.633,5.071 -3.231,3.34 -4.075,4.047 -5.961,4.972 -1.989,0.981 -2.422,1.086 -4.602,1.09 z m -92.16,-29.535 c 1.016,0.067 1.871,-0.078 2.559,-0.433 1.328,-0.684 4.691,-3.028 5.14,-3.583 0.965,-1.179 1.586,-3.039 1.403,-4.183 -0.329,-2.051 -2.637,-6.414 -5.305,-10.016 -3.379,-4.566 -4.508,-6.855 -4.891,-9.949 -0.343,-2.793 0.2,-6.875 1.434,-10.75 0.406,-1.273 1.195,-4.031 1.746,-6.125 0.91,-3.449 1.008,-4.187 1.004,-7.75 0,-4.312 -0.41,-6.305 -3.531,-17.18 -0.789,-2.75 -0.844,-6.98 -0.129,-9.664 0.613,-2.293 1.683,-4.164 4.683,-8.183 3.309,-4.434 3.797,-5.606 3.797,-9.094 l 0,-2.824 -1.199,-1.699 c -0.66,-0.934 -1.836,-2.157 -2.617,-2.719 -1.278,-0.922 -1.633,-1.028 -3.614,-1.102 -1.73,-0.066 -2.613,0.067 -4.14,0.617 -3.754,1.352 -7.168,3.801 -8.984,6.438 -1.352,1.961 -2.356,5.676 -2.543,9.367 -0.149,3.004 0.589,11.262 1.628,18.238 0.911,6.094 1.153,20.274 0.465,27.141 -0.234,2.328 -0.625,6.203 -0.863,8.609 -0.242,2.407 -0.578,5.036 -0.742,5.836 -0.485,2.328 -0.711,11.371 -0.352,14.032 0.215,1.578 0.727,3.308 1.559,5.25 1.578,3.695 3.633,5.898 7.113,7.64 2.547,1.278 4.684,1.973 6.379,2.086 z m 79.516,-14.426 c 1.402,0 1.964,-0.168 3.379,-1.015 2.14,-1.282 3.019,-2.153 4.656,-4.606 1.566,-2.34 2.574,-5.238 3.566,-10.222 1.047,-5.278 1.793,-8.364 2.309,-9.606 0.25,-0.594 0.937,-2.726 1.531,-4.734 1.055,-3.571 1.082,-3.77 1.063,-8.328 -0.016,-4.633 -0.028,-4.7 -1.215,-8.461 -2.805,-8.899 -3.563,-11.52 -4.012,-13.864 -0.262,-1.363 -0.613,-3.179 -0.777,-4.031 -0.399,-2.074 -2.555,-6.324 -4.102,-8.078 -0.687,-0.781 -2.023,-1.922 -2.973,-2.535 -1.48,-0.953 -1.961,-1.113 -3.367,-1.113 -1.078,0 -1.89,0.171 -2.363,0.5 -1.875,1.304 -2.293,2.718 -2.527,8.546 -0.192,4.7 0.191,7.274 1.972,13.278 3.512,11.851 3.25,10.578 3.25,15.906 -0.004,5.277 0.246,4.008 -2.769,14.152 -2.461,8.282 -2.864,11.371 -2.254,17.34 0.566,5.543 1.461,6.871 4.633,6.871 z m -204.2,-25.289 c -4.601,0.106 -7.207,-1.547 -9.187,-5.726 -0.883,-1.867 -0.922,-2.106 -0.918,-5.598 0.004,-3.797 0.816,-13.957 1.266,-15.797 0.644,-2.652 3.031,-5.961 5.031,-6.98 2.461,-1.258 5.164,-1.352 7.305,-0.262 2.406,1.23 4.339,4.086 4.339,6.414 0,1.375 -0.621,2.691 -2.898,6.117 -2.109,3.18 -2.352,3.774 -2.352,5.715 0,2.031 0.797,4.391 2.797,8.277 1.969,3.829 2.239,5.223 1.211,6.247 -0.933,0.933 -2.351,1.324 -5.644,1.55 -0.325,0.024 -0.641,0.035 -0.95,0.043 z m 328.836,-54.726 1.828,-0.149 c 1.008,-0.082 3.012,-0.422 4.458,-0.761 1.445,-0.336 4.855,-1.024 7.582,-1.528 5.582,-1.031 6.714,-1.414 9.867,-3.324 4.351,-2.645 6.273,-6.691 5.133,-10.809 -0.711,-2.566 -3.602,-6.031 -6.075,-7.285 -1.699,-0.859 -2.945,-0.922 -4.465,-0.219 -1.05,0.485 -3.73,2.454 -6.644,4.883 -0.77,0.641 -3.379,2.2 -5.797,3.461 -5.031,2.621 -6.562,3.973 -7.582,6.696 -1.367,3.66 -1.203,5.988 0.555,7.835 l 1.14,1.2 z m -50.23,-33.082 c -0.942,-0.008 -1.961,-0.086 -3.043,-0.243 -1.945,-0.285 -4.176,-1.183 -4.801,-1.937 -1.121,-1.352 0.52,-5.547 3.582,-9.172 2.938,-3.473 4.828,-4.16 7.371,-2.672 0.625,0.364 1.332,1.399 2.465,3.61 1.492,2.918 1.586,3.23 1.606,5.293 0.015,2.101 -0.02,2.234 -0.957,3.199 -1.243,1.285 -3.399,1.937 -6.223,1.922 z m -226.461,-9.496 c 1.07,-0.039 2.191,-0.391 3.582,-1.063 2.977,-1.437 4.785,-3.137 7.141,-6.707 2.195,-3.328 3.101,-5.344 4.664,-10.363 0.586,-1.887 1.632,-4.676 2.324,-6.199 0.691,-1.524 1.687,-4.02 2.211,-5.543 0.906,-2.625 0.969,-3.079 1.172,-8.465 0.117,-3.129 0.371,-6.211 0.558,-6.844 0.5,-1.672 3.289,-4.309 5.383,-5.09 3.035,-1.137 5.867,-0.687 10.61,1.692 1.578,0.793 3.562,1.57 4.406,1.722 1.515,0.274 5.5,0.004 6.644,-0.453 0.629,-0.25 6.375,-4.137 8.992,-6.078 4.051,-3.012 6.68,-3.883 12.735,-4.223 4.785,-0.269 8.164,-0.867 9.883,-1.75 1.308,-0.675 4.543,-3.972 4.945,-5.039 0.648,-1.734 0.191,-5.476 -0.938,-7.656 -0.949,-1.832 -3.293,-4.625 -4.558,-5.43 -1.109,-0.703 -1.613,-0.832 -3.227,-0.82 -1.054,0.008 -2.308,0.187 -2.789,0.398 -0.965,0.43 -3.64,2.344 -6.566,4.704 -2.688,2.164 -8.711,6.144 -10.395,6.871 -0.785,0.336 -3.195,1.199 -5.363,1.918 -5.18,1.718 -7.43,1.89 -12.844,0.984 -2.164,-0.359 -5.316,-0.813 -7.004,-1.008 -4.015,-0.465 -6.086,-0.074 -10.152,1.926 -2.484,1.223 -3.395,1.867 -5.254,3.73 -1.883,1.887 -2.523,2.801 -3.949,5.633 -1.746,3.473 -2.188,4.809 -3.828,11.602 -0.981,4.051 -1.832,7.183 -2.856,10.508 -1.222,3.964 -3.707,7.589 -8.703,12.707 -4.144,4.246 -4.265,4.476 -4.558,8.629 -0.161,2.304 -0.11,2.648 0.609,4.23 1.266,2.77 2.141,3.828 3.871,4.676 1.172,0.57 2.188,0.844 3.254,0.801 z m -29.605,-11.2 c 0.582,0 1.929,-1.152 5.937,-5.078 2.855,-2.793 6.078,-6.242 7.168,-7.66 4.004,-5.219 5.242,-7.004 6.25,-8.988 0.566,-1.113 1.32,-2.492 1.676,-3.063 2.035,-3.246 4.051,-9.14 5.527,-16.144 1.027,-4.867 1.899,-7.035 4.262,-10.625 1.367,-2.074 5.695,-5.836 8.176,-7.106 0.882,-0.453 2.394,-1.504 3.355,-2.336 1.801,-1.558 6.703,-5.308 8.059,-6.164 0.422,-0.269 1.734,-0.843 2.918,-1.281 3.691,-1.359 7.629,-1.004 12.367,1.125 2.004,0.898 2.129,0.918 6.57,0.922 l 4.524,0.008 3.347,-1.606 c 1.844,-0.883 4.055,-2.176 4.918,-2.871 0.86,-0.695 2.953,-2.109 4.653,-3.14 1.699,-1.032 3.296,-2.051 3.546,-2.266 0.254,-0.219 1.059,-0.742 1.793,-1.164 4.582,-2.637 5.926,-6.496 5.95,-17.113005 0.011,-5.539 -0.008,-5.727 -0.719,-6.997 -1.883,-3.359 -8.043,-5.394 -12.547,-4.14 -3.582,1 -4.805,2 -5.957,4.879 -0.984,2.457 -0.961,3.992 0.105,6.777 1.258,3.297 1.551,4.754 1.43,7.145005 -0.148,2.953 -1.031,4.617 -3.258,6.136 -1.398,0.953 -1.992,1.176 -3.496,1.289 -3.164,0.247 -6.582,-0.832 -9.594,-3.023 -1.886,-1.375 -4.468,-2.492 -8.414,-3.645 -2.98,-0.871 -3.73,-0.98 -6.711,-0.964 -2.535,0.015 -3.632,0.144 -4.48,0.531 -1.848,0.836 -3.832,2.945 -5.461,5.82 -5.176,9.113 -10.07,13.528 -20.699,18.66 -5.965,2.879 -8.363,5.035 -9.18,8.258 -0.512,2.012 -0.519,2.34 -0.281,10.504 l 0.18,6.148 -0.883,2.622 c -0.938,2.804 -2.461,5.64 -3.914,7.3 -1.274,1.45 -5.813,4.496 -8.395,5.633 -4.117,1.813 -4.527,2.055 -6.449,3.793 -2.477,2.242 -3.316,4.016 -3.109,6.578 0.21,2.555 1.175,4.328 3.75,6.879 2.336,2.313 5.668,4.367 7.086,4.367 z"
         style="fill:#ffffff;fill-opacity:1;fill-rule:nonzero;stroke:none"
         id="path14"
         inkscape:connector-curvature="0" /></g></g></svg>